<svg width="24" height="24" viewBox="0 0 24 24" fill="none" xmlns="http://www.w3.org/2000/svg">
<path d="M14.47 13.77L13.06 12.35L18.7199 6.69995L17.3 5.27995L11.65 10.94L10.23 9.52995L15.89 3.86995L14.47 2.44995L8.10995 8.81995C7.54815 9.38245 7.23259 10.1449 7.23259 10.94C7.23259 11.735 7.54815 12.4974 8.10995 13.06L8.81995 13.77L2.44995 20.1299L3.86995 21.5499L10.23 15.18L10.94 15.89C11.5025 16.4518 12.2649 16.7673 13.06 16.7673C13.855 16.7673 14.6175 16.4518 15.18 15.89L21.5499 9.52995L20.1299 8.10995L14.47 13.77Z" fill="black"/>
</svg>
