<svg width="24" height="24" viewBox="0 0 24 24" fill="none" xmlns="http://www.w3.org/2000/svg">
<mask id="path-1-inside-1_66_1569" fill="white">
<path d="M16.5 8.00004C16.5 9.50004 16 11.5 13.6 12.3C14.3 10.6 14.4 8.90004 13.9 7.30004C13.2 5.20004 10.9 3.60004 9.3 2.70004C8.9 2.40004 8.2 2.80004 8.3 3.40004C8.3 4.50004 8 6.10004 6.3 7.80004C4.1 10 3 12.3 3 14.5C3 17.4 5 21 9 21C5 17 8 13.5 8 13.5C8.8 19.4 13 21 15 21C16.7 21 20 19.8 20 14.6C20 11.5 18.7 9.10004 17.6 7.70004C17.3 7.20004 16.6 7.50004 16.5 8.00004Z"/>
</mask>
<path d="M16.5 8.00004C16.5 9.50004 16 11.5 13.6 12.3C14.3 10.6 14.4 8.90004 13.9 7.30004C13.2 5.20004 10.9 3.60004 9.3 2.70004C8.9 2.40004 8.2 2.80004 8.3 3.40004C8.3 4.50004 8 6.10004 6.3 7.80004C4.1 10 3 12.3 3 14.5C3 17.4 5 21 9 21C5 17 8 13.5 8 13.5C8.8 19.4 13 21 15 21C16.7 21 20 19.8 20 14.6C20 11.5 18.7 9.10004 17.6 7.70004C17.3 7.20004 16.6 7.50004 16.5 8.00004Z" fill="black"/>
<path d="M13.6 12.3L12.6753 11.9193L11.8434 13.9397L13.9162 13.2487L13.6 12.3ZM13.9 7.30004L14.8545 7.00177L14.8517 6.99276L14.8487 6.98381L13.9 7.30004ZM9.3 2.70004L8.7 3.50004L8.75252 3.53943L8.80974 3.57162L9.3 2.70004ZM8.3 3.40004H9.3V3.31728L9.28639 3.23564L8.3 3.40004ZM9 21V22H11.4142L9.70711 20.2929L9 21ZM8 13.5L8.99093 13.3657L8.69142 11.1568L7.24074 12.8492L8 13.5ZM17.6 7.70004L16.7425 8.21454L16.7748 8.26844L16.8137 8.31786L17.6 7.70004ZM15.5 8.00004C15.5 8.6515 15.3895 9.34555 15.07 9.93761C14.7653 10.5021 14.2415 11.0321 13.2838 11.3514L13.9162 13.2487C15.3585 12.768 16.2847 11.898 16.83 10.8875C17.3605 9.90453 17.5 8.84858 17.5 8.00004H15.5ZM14.5247 12.6808C15.3049 10.786 15.4307 8.84552 14.8545 7.00177L12.9455 7.59832C13.3693 8.95457 13.2951 10.4141 12.6753 11.9193L14.5247 12.6808ZM14.8487 6.98381C14.4222 5.70436 13.5343 4.64047 12.6059 3.80621C11.6695 2.96481 10.6265 2.29885 9.79026 1.82847L8.80974 3.57162C9.5735 4.00123 10.4805 4.58527 11.2691 5.29387C12.0657 6.00962 12.6778 6.79572 12.9513 7.61627L14.8487 6.98381ZM9.9 1.90004C9.27433 1.43079 8.52794 1.57617 8.06925 1.87297C7.58111 2.18882 7.18729 2.80652 7.31361 3.56444L9.28639 3.23564C9.31271 3.39356 9.21889 3.51126 9.15575 3.55211C9.12206 3.57391 8.92567 3.66929 8.7 3.50004L9.9 1.90004ZM7.3 3.40004C7.3 4.27451 7.07905 5.60678 5.59289 7.09294L7.00711 8.50715C8.92095 6.5933 9.3 4.72558 9.3 3.40004H7.3ZM5.59289 7.09294C3.27334 9.41248 2 11.9521 2 14.5H4C4 12.648 4.92666 10.5876 7.00711 8.50715L5.59289 7.09294ZM2 14.5C2 16.1592 2.5664 18.0069 3.71611 19.4584C4.88558 20.9349 6.66339 22 9 22V20C7.33661 20 6.11442 19.2652 5.28389 18.2166C4.4336 17.1431 4 15.7409 4 14.5H2ZM9.70711 20.2929C7.93582 18.5217 7.7934 16.9765 7.98387 15.9289C8.08444 15.3758 8.28705 14.918 8.46626 14.598C8.55518 14.4392 8.63616 14.3183 8.6916 14.2409C8.71924 14.2024 8.74024 14.1751 8.75235 14.1597C8.7584 14.1521 8.76219 14.1474 8.76345 14.1459C8.76407 14.1452 8.76406 14.1452 8.76338 14.146C8.76303 14.1464 8.76252 14.147 8.76184 14.1478C8.76149 14.1482 8.76111 14.1487 8.76068 14.1492C8.76046 14.1494 8.76011 14.1498 8.76 14.15C8.75963 14.1504 8.75926 14.1508 8 13.5C7.24074 12.8492 7.24034 12.8497 7.23993 12.8502C7.23978 12.8504 7.23935 12.8509 7.23905 12.8512C7.23844 12.8519 7.23778 12.8527 7.23707 12.8536C7.23567 12.8552 7.23408 12.8571 7.23231 12.8592C7.22877 12.8634 7.22451 12.8685 7.21959 12.8745C7.20973 12.8865 7.19717 12.902 7.18222 12.9209C7.15233 12.9588 7.1128 13.0106 7.06621 13.0756C6.97322 13.2053 6.85107 13.389 6.72124 13.6208C6.46295 14.0821 6.16556 14.7493 6.01613 15.5712C5.7066 17.2736 6.06418 19.4784 8.29289 21.7071L9.70711 20.2929ZM7.00907 13.6344C7.88461 20.0916 12.5641 22 15 22V20C13.4359 20 9.71539 18.7085 8.99093 13.3657L7.00907 13.6344ZM15 22C16.0537 22 17.5594 21.6352 18.8128 20.4876C20.0941 19.3144 21 17.4263 21 14.6H19C19 16.9738 18.2559 18.2857 17.4622 19.0125C16.6406 19.7648 15.6463 20 15 20V22ZM21 14.6C21 11.2158 19.5823 8.60442 18.3863 7.08222L16.8137 8.31786C17.8177 9.59566 19 11.7843 19 14.6H21ZM18.4575 7.18555C18.2643 6.86349 17.972 6.62373 17.6155 6.51167C17.2727 6.40395 16.9359 6.43399 16.6588 6.52636C16.1329 6.70164 15.6476 7.16293 15.5194 7.80393L17.4806 8.19616C17.4524 8.33715 17.3671 8.39845 17.2912 8.42372C17.2391 8.44109 17.1398 8.45864 17.0158 8.41966C16.878 8.37635 16.7857 8.2866 16.7425 8.21454L18.4575 7.18555Z" fill="black" mask="url(#path-1-inside-1_66_1569)"/>
</svg>
