<svg width="120" height="120" viewBox="0 0 120 120" fill="none" xmlns="http://www.w3.org/2000/svg">
<path d="M117.588 54.1237C116.866 53.5787 116.03 53.203 115.144 53.0243C114.257 52.8457 113.341 52.8687 112.464 53.0917C111.01 53.498 109.51 53.7158 108 53.7397C98.0761 53.7397 90.0001 45.6638 89.9821 36.1178C90.0121 35.9138 90.0781 35.3018 90.0841 35.0978C90.1233 34.1598 89.9413 33.2257 89.5529 32.371C89.1646 31.5162 88.5807 30.7648 87.8484 30.1773C87.1161 29.5899 86.2559 29.1828 85.3373 28.989C84.4186 28.7952 83.4673 28.8202 82.5601 29.0618C81.076 29.4848 79.5431 29.7127 78.0002 29.7398C68.0762 29.7398 60.0002 21.6639 60.0002 11.7399C60.0002 10.4379 60.1862 9.0759 60.5942 7.44391C60.8252 6.51237 60.8293 5.53901 60.6063 4.60554C60.3832 3.67207 59.9395 2.80572 59.3123 2.07923C58.6852 1.35274 57.8929 0.787293 57.002 0.430362C56.1111 0.0734308 55.1475 -0.0645708 54.1922 0.0279392C39.3331 1.41286 25.5305 8.30951 15.5011 19.3605C5.47173 30.4115 -0.0579458 44.8163 0.00045796 59.7397C0.00045796 92.8236 26.9164 119.739 60.0002 119.739C93.0841 119.739 120 92.8236 120 59.7397C120 59.4457 119.982 59.1577 119.958 58.7797C119.938 57.8755 119.714 56.9874 119.304 56.1814C118.894 55.3754 118.307 54.6721 117.588 54.1237ZM60.0002 107.74C33.5343 107.74 12.0004 86.2056 12.0004 59.7397C11.9576 49.0794 15.4816 38.7111 22.0117 30.2849C28.5418 21.8587 37.7026 15.8587 48.0363 13.2399C48.4298 20.9243 51.7573 28.1646 57.3326 33.4675C62.9079 38.7704 70.3057 41.7314 78.0002 41.7398L78.6062 41.7338C79.9831 48.4433 83.6113 54.4808 88.8896 58.8458C94.1679 63.2107 100.779 65.641 107.628 65.7337C104.664 89.3856 84.4381 107.74 60.0002 107.74Z" fill="#6B6B6B"/>
<path d="M63.0005 65.7398C67.971 65.7398 72.0004 61.7104 72.0004 56.7398C72.0004 51.7693 67.971 47.7399 63.0005 47.7399C58.0299 47.7399 54.0005 51.7693 54.0005 56.7398C54.0005 61.7104 58.0299 65.7398 63.0005 65.7398Z" fill="#6B6B6B"/>
<path d="M39.0006 47.7398C43.9712 47.7398 48.0006 43.7104 48.0006 38.7398C48.0006 33.7693 43.9712 29.7399 39.0006 29.7399C34.0301 29.7399 30.0007 33.7693 30.0007 38.7398C30.0007 43.7104 34.0301 47.7398 39.0006 47.7398Z" fill="#6B6B6B"/>
<path d="M33.0006 71.7397C37.9711 71.7397 42.0005 67.7103 42.0005 62.7397C42.0005 57.7692 37.9711 53.7397 33.0006 53.7397C28.03 53.7397 24.0006 57.7692 24.0006 62.7397C24.0006 67.7103 28.03 71.7397 33.0006 71.7397Z" fill="#6B6B6B"/>
<path d="M81.0005 89.7396C85.971 89.7396 90.0004 85.7101 90.0004 80.7396C90.0004 75.769 85.971 71.7396 81.0005 71.7396C76.0299 71.7396 72.0005 75.769 72.0005 80.7396C72.0005 85.7101 76.0299 89.7396 81.0005 89.7396Z" fill="#6B6B6B"/>
<path d="M51.0005 95.7396C55.9711 95.7396 60.0005 91.7101 60.0005 86.7396C60.0005 81.769 55.9711 77.7396 51.0005 77.7396C46.03 77.7396 42.0005 81.769 42.0005 86.7396C42.0005 91.7101 46.03 95.7396 51.0005 95.7396Z" fill="#6B6B6B"/>
</svg>
