<svg width="107" height="106" viewBox="0 0 107 106" fill="none" xmlns="http://www.w3.org/2000/svg">
<path d="M34.365 45.9869H31.0832C28.763 45.9932 26.4647 45.5433 24.3212 44.6631C22.1777 43.783 20.2317 42.4901 18.5958 40.8594L0.531251 22.8125L5.43528 17.9125L23.8816 36.1956L27.7153 32.3959L9.26889 14.1106L14.3451 9.23031L32.723 27.4434L36.5456 23.6438L18.0992 5.35844L23.043 0.5L41.251 18.4047C42.8964 20.0264 44.2009 21.9556 45.0889 24.0805C45.9769 26.2054 46.4308 28.4838 46.4243 30.7838V34.0344L55.9432 43.4691L99.4063 0.5C109.179 12.5028 103.408 34.5616 92.4055 45.4684L73.5354 64.1716C67.6758 69.9794 66.5127 70.4978 59.8651 67.8466C58.4327 67.2756 57.9119 67.3391 56.5766 68.6603L53.7075 71.3138C53.0608 71.97 53.0454 72.1625 53.0454 73.4181V74.63C53.0454 79.2413 50.0703 81.8925 48.1104 83.87L25.25 105.5L9.35938 89.75L43.884 55.4216L34.365 45.9869Z" fill="#AAAAAA"/>
<path d="M59.8187 74.5668C66.4001 75.9033 70.4368 77.1349 78.1547 69.4852C78.2783 69.3627 78.4063 69.2446 78.5299 69.1221L82.8337 64.8564L106.469 88.0002L88.8125 105.5L57.0312 74.0002L59.8187 74.5668Z" fill="#AAAAAA"/>
</svg>
