<svg width="15" height="16" viewBox="0 0 15 16" fill="none" xmlns="http://www.w3.org/2000/svg">
<path d="M1.6 14.4C1.6 14.8243 1.76857 15.2313 2.06863 15.5314C2.36869 15.8314 2.77565 16 3.2 16H11.2C11.6243 16 12.0313 15.8314 12.3314 15.5314C12.6314 15.2313 12.8 14.8243 12.8 14.4V4.8H14.4V3.2H11.2V1.6C11.2 1.17565 11.0314 0.768687 10.7314 0.468629C10.4313 0.168571 10.0243 0 9.6 0H4.8C4.37565 0 3.96869 0.168571 3.66863 0.468629C3.36857 0.768687 3.2 1.17565 3.2 1.6V3.2H0V4.8H1.6V14.4ZM4.8 1.6H9.6V3.2H4.8V1.6ZM4 4.8H11.2V14.4H3.2V4.8H4Z" fill="black"/>
<path d="M4.80002 6.40002H6.40002V12.8H4.80002V6.40002ZM8.00002 6.40002H9.60002V12.8H8.00002V6.40002Z" fill="black"/>
</svg>
